<svg id="Layer_1" data-name="Layer 1" xmlns="http://www.w3.org/2000/svg" viewBox="0 0 264.74 309.02"><defs><style>.cls-1{fill:#f1e9ed;}</style></defs><path class="cls-1" d="M203.55,155.24c-1.09-7.21-2.58-17.09-7.69-29.14-1.41-3.32-5.16-12.16-10.51-19-1.7-2.17-15.92-19.47-37.74-21.65a33.86,33.86,0,0,1,12.81,7.91c.42.44.82.9.82.9.61.7,1.19,1.46,2,2.66,10.22,14.23,12.15,29.27,13.56,42.94a139,139,0,0,1,.71,16.64A133.14,133.14,0,0,1,175.34,179c-2.4,12.78-6.13,23.06-11.06,30.49-5.46,8.19-12.05,13.52-20.13,16.27-3.5,1.11-10,2.41-21.17,2.41h-7.43a29.4,29.4,0,0,1-29.4-29.4V81.05l.28-14.41a23.8,23.8,0,0,0-.36-4.77,67.24,67.24,0,0,0-2.72-10.34C77.56,35,67,25.42,62,21,41,2.43,15.59.17,4.7,0A4.69,4.69,0,0,0,0,4.7V279.62A29.4,29.4,0,0,0,29.4,309H129.74a23.66,23.66,0,0,0,5.7-.7,163,163,0,0,0,28.18-24.9A169.47,169.47,0,0,0,188,247.64c4.35-8.53,13.38-26.29,16.44-51.24A157.57,157.57,0,0,0,203.55,155.24ZM237.17,50.32A80.36,80.36,0,0,0,204.5,36.51a85.75,85.75,0,0,0-33.22,1.08c-5.58,1.3-14,3.25-23.25,9.38-5.63,3.74-9.27,7.59-15.89,14.58A46.6,46.6,0,0,0,124.19,72c-.09.16-.17.33-.25.49v-.34a56.57,56.57,0,0,1,7.87-29.43,54.33,54.33,0,0,1,10.6-12.6c21.6-19.06,54.64-18.51,76.39.39a128.14,128.14,0,0,1,16.3,17.11l.09.11C235.86,48.59,236.52,49.45,237.17,50.32Zm27.57,100.24c0,2.6,0,5.18-.14,7.75A111.67,111.67,0,0,0,254,128a114.51,114.51,0,0,0-35.17-40,111.32,111.32,0,0,0-38.25-17.37A98,98,0,0,0,155.39,68a68.46,68.46,0,0,0-19.53,2.85c.8-.93,1.72-1.95,2.83-3.12,6.55-6.93,9.54-10.09,14.32-13.26,7.87-5.23,15.35-7,20.31-8.11a76.11,76.11,0,0,1,29.6-1,71.54,71.54,0,0,1,34.14,16.31c1.18,1,2.33,2.09,3.44,3.18l.06.07A72.64,72.64,0,0,1,255.19,89.7C261.54,108,264.74,128.36,264.74,150.56Zm-5.45,52.09c-.06.68-.14,1.35-.21,2a113.58,113.58,0,0,1-3.56,18c-1.18,3.19-2.5,6.45-3.93,9.68l-.17.41c-.68,1.52-1.32,2.92-2,4.27-4.47,9.44-16.28,33.14-42.05,51a120.34,120.34,0,0,1-57.51,20.67,171.61,171.61,0,0,0,20.42-19.3A178.14,178.14,0,0,0,196,251.72c4.58-9,14.1-27.7,17.35-54.23a166.89,166.89,0,0,0-.91-43.59,122.48,122.48,0,0,0-8.3-31.31c-1.54-3.63-5.63-13.26-11.72-21-1.86-2.37-16.62-20.31-39.77-24.46l3.05-.12a89,89,0,0,1,22.84,2.34,102,102,0,0,1,35.08,16,105.55,105.55,0,0,1,25.45,25.51q1.23,2,2.33,4c.27.5.55,1,.81,1.5A181.62,181.62,0,0,1,251.17,146a123.59,123.59,0,0,1,4.4,13.14,119.59,119.59,0,0,1,4.19,26.67.09.09,0,0,1,0,.07A118.87,118.87,0,0,1,259.29,202.65Z"/></svg>