<svg id="Layer_1" data-name="Layer 1" xmlns="http://www.w3.org/2000/svg" viewBox="0 0 264.74 309.02"><defs><style>.cls-1{fill:#18272a;}.cls-2{fill:#f1564c;}.cls-3{fill:#f1e9ed;}.cls-4{fill:#506469;}.cls-5{fill:none;}</style></defs><path class="cls-1" d="M204.79,150.79c-2.62-13.53-8.16-42.15-31-58C154.63,79.5,132,81.72,126.41,80.8a4.71,4.71,0,0,0,2.23.72c24.65,1.44,32.28,12.07,34.91,15.73,10.21,14.23,12.15,29.27,13.56,42.94a141.18,141.18,0,0,1,.71,16.64,135.34,135.34,0,0,1-2.22,22.44c-2.4,12.78-6.13,23.06-11.06,30.49-5.46,8.19-12.06,13.52-20.13,16.27-3.5,1.11-10,2.41-21.18,2.41H115.8A29.4,29.4,0,0,1,86.41,199V81.35l.28-14.41a24.55,24.55,0,0,0-.36-4.77,68.1,68.1,0,0,0-2.72-10.34C77.82,35.26,67.28,25.72,62.27,21.31,41.22,2.73,15.85.47,5,.3A4.69,4.69,0,0,0,.26,5V279.92a29.4,29.4,0,0,0,29.39,29.4H130A24.67,24.67,0,0,0,145.05,304a158.23,158.23,0,0,0,18.85-17.25C198.31,249.73,213.79,197.28,204.79,150.79Z"/><path class="cls-2" d="M247.41,71.09c-15.44-22.18-41.78-34-68.1-30.52-33.52,4.45-50.21,31.55-54.21,39a4.53,4.53,0,0,1-.9-2.75V72.45A57.52,57.52,0,0,1,131.9,43a54.3,54.3,0,0,1,10.36-12.6c21.14-19.06,53.46-18.51,74.74.39a126.59,126.59,0,0,1,16,17.11L233,48A139.36,139.36,0,0,1,247.41,71.09Z"/><path class="cls-3" d="M252.59,221.52a123.26,123.26,0,0,0-4.24-77c-5-12.95-19.77-50.74-57.19-65.48-31.35-12.36-63.69-2.62-65.91.7l-.15-.21c4-7.46,20.69-34.56,54.21-39,26.32-3.5,52.66,8.34,68.1,30.52v0c11.34,22.83,17.07,49.54,17.07,79.75C264.48,176.15,260.49,199.85,252.59,221.52Z"/><path class="cls-4" d="M252.59,221.52q-1.78,4.93-3.87,9.73h0q-1,2.34-2.07,4.65c-21.14,45.55-58.54,70.74-108.49,73.2a157.92,157.92,0,0,0,25.74-22.32c34.41-37.06,49.89-89.51,40.89-136-2.62-13.53-8.16-42.15-31-58C154.63,79.5,132,81.72,126.41,80.8a4.66,4.66,0,0,1-1.16-1c2.22-3.32,34.56-13.06,65.91-.7,37.42,14.74,52.14,52.53,57.19,65.48A123.26,123.26,0,0,1,252.59,221.52Z"/><path class="cls-5" d="M247.44,71.14s0,0,0,0"/><path class="cls-5" d="M125.1,79.58c-.48.91-.78,1.53-.9,1.78"/><path class="cls-5" d="M247,244.72c-1.52-2.2-1.42-6.46,2.7-14.69,0,0,0,0,0,0a58.87,58.87,0,0,0,2.92-8.49"/><path class="cls-5" d="M126.41,80.8c-.83-.13-1.28-.34-1.28-.67a.58.58,0,0,1,.13-.34"/></svg>