<svg width="1437" height="800" viewBox="0 0 1437 800" fill="none" xmlns="http://www.w3.org/2000/svg">
<path d="M0 44.2928C0 44.2928 10.8 36.1928 13.9 22.9928C17 9.7928 28.5 0.992798 28.5 0.992798" stroke="#ECECEC" stroke-width="2" stroke-miterlimit="10"/>
<path d="M0 80.2928C0 80.2928 37 68.8928 46.8 40.1928C56.2 12.2928 94.2 0.992798 94.2 0.992798" stroke="#ECECEC" stroke-width="2" stroke-miterlimit="10"/>
<path d="M0 116.293C0 116.293 63.2 101.593 79.6 57.4928C95.4 14.9928 159.9 0.992798 159.9 0.992798" stroke="#ECECEC" stroke-width="2" stroke-miterlimit="10"/>
<path d="M0 152.393C0 152.393 89.3 134.293 112.5 74.7928C134.6 17.5928 225.5 0.992798 225.5 0.992798" stroke="#ECECEC" stroke-width="2" stroke-miterlimit="10"/>
<path d="M0 188.393C0 188.393 115.5 166.993 145.3 92.0928C173.8 20.2928 291.2 0.992798 291.2 0.992798" stroke="#ECECEC" stroke-width="2" stroke-miterlimit="10"/>
<path d="M0 224.393C0 224.393 141.7 199.693 178.2 109.293C213 22.9928 356.9 0.992798 356.9 0.992798" stroke="#ECECEC" stroke-width="2" stroke-miterlimit="10"/>
<path d="M0 260.493C0 260.493 167.8 232.393 211 126.693C252.2 25.5928 422.6 0.992798 422.6 0.992798" stroke="#ECECEC" stroke-width="2" stroke-miterlimit="10"/>
<path d="M0 296.493C0 296.493 194 265.093 243.9 143.893C291.4 28.2928 488.3 0.992798 488.3 0.992798" stroke="#ECECEC" stroke-width="2" stroke-miterlimit="10"/>
<path d="M0 332.493C0 332.493 220.2 297.793 276.8 161.193C330.6 30.9928 553.9 0.992798 553.9 0.992798" stroke="#ECECEC" stroke-width="2" stroke-miterlimit="10"/>
<path d="M0 368.593C0 368.593 246.3 330.593 309.6 178.493C369.9 33.5928 619.6 0.992798 619.6 0.992798" stroke="#ECECEC" stroke-width="2" stroke-miterlimit="10"/>
<path d="M0 404.593C0 404.593 272.5 363.193 342.5 195.793C409.1 36.2928 685.3 0.992798 685.3 0.992798" stroke="#ECECEC" stroke-width="2" stroke-miterlimit="10"/>
<path d="M0 440.593C0 440.593 298.7 395.893 375.3 212.993C448.3 38.9928 751 0.992798 751 0.992798" stroke="#ECECEC" stroke-width="2" stroke-miterlimit="10"/>
<path d="M0 476.693C0 476.693 324.8 428.693 408.2 230.393C487.5 41.5928 816.6 0.992798 816.6 0.992798" stroke="#ECECEC" stroke-width="2" stroke-miterlimit="10"/>
<path d="M0 512.693C0 512.693 351 461.393 441 247.693C526.7 44.2928 882.3 0.992798 882.3 0.992798" stroke="#ECECEC" stroke-width="2" stroke-miterlimit="10"/>
<path d="M0 548.793C0 548.793 377.2 494.093 473.9 264.993C565.9 46.9928 948 0.992798 948 0.992798" stroke="#ECECEC" stroke-width="2" stroke-miterlimit="10"/>
<path d="M0 584.793C0 584.793 403.3 526.793 506.7 282.293C605.1 49.5928 1013.7 0.992798 1013.7 0.992798" stroke="#ECECEC" stroke-width="2" stroke-miterlimit="10"/>
<path d="M0 620.793C0 620.793 429.5 559.493 539.6 299.493C644.3 52.2928 1079.4 0.992798 1079.4 0.992798" stroke="#ECECEC" stroke-width="2" stroke-miterlimit="10"/>
<path d="M0 656.893C0 656.893 455.7 592.193 572.5 316.893C683.5 54.9928 1145 0.992798 1145 0.992798" stroke="#ECECEC" stroke-width="2" stroke-miterlimit="10"/>
<path d="M0 692.893C0 692.893 481.8 624.893 605.3 334.093C722.7 57.5928 1210.7 0.992798 1210.7 0.992798" stroke="#ECECEC" stroke-width="2" stroke-miterlimit="10"/>
<path d="M0 728.893C0 728.893 508 657.593 638.2 351.393C761.9 60.2928 1276.4 0.992798 1276.4 0.992798" stroke="#ECECEC" stroke-width="2" stroke-miterlimit="10"/>
<path d="M0 764.993C0 764.993 534.2 690.393 671 368.693C801.1 62.9928 1342.1 0.992798 1342.1 0.992798" stroke="#ECECEC" stroke-width="2" stroke-miterlimit="10"/>
<path d="M0 800.993C0 800.993 560.3 722.993 703.9 385.993C840.3 65.5928 1407.7 0.992798 1407.7 0.992798" stroke="#ECECEC" stroke-width="2" stroke-miterlimit="10"/>
<path d="M1436.3 757.693C1436.3 757.693 1425.5 765.793 1422.4 778.993C1419.3 792.293 1407.8 800.893 1407.8 800.893" stroke="#ECECEC" stroke-width="2" stroke-miterlimit="10"/>
<path d="M1436.3 721.693C1436.3 721.693 1399.3 733.093 1389.5 761.793C1380.1 789.693 1342.1 800.993 1342.1 800.993" stroke="#ECECEC" stroke-width="2" stroke-miterlimit="10"/>
<path d="M1436.3 685.693C1436.3 685.693 1373.1 700.393 1356.7 744.493C1340.8 786.993 1276.4 800.993 1276.4 800.993" stroke="#ECECEC" stroke-width="2" stroke-miterlimit="10"/>
<path d="M1436.3 649.593C1436.3 649.593 1347 667.693 1323.8 727.193C1301.7 784.293 1210.7 800.993 1210.7 800.993" stroke="#ECECEC" stroke-width="2" stroke-miterlimit="10"/>
<path d="M1436.3 613.593C1436.3 613.593 1320.8 634.993 1291 709.893C1262.5 781.693 1145.1 800.993 1145.1 800.993" stroke="#ECECEC" stroke-width="2" stroke-miterlimit="10"/>
<path d="M1436.3 577.493C1436.3 577.493 1294.6 602.193 1258.1 692.593C1223.2 778.993 1079.4 800.993 1079.4 800.993" stroke="#ECECEC" stroke-width="2" stroke-miterlimit="10"/>
<path d="M1436.3 541.493C1436.3 541.493 1268.5 569.593 1225.3 675.293C1184.1 776.293 1013.8 800.993 1013.8 800.993" stroke="#ECECEC" stroke-width="2" stroke-miterlimit="10"/>
<path d="M1436.3 505.493C1436.3 505.493 1242.3 536.893 1192.4 658.093C1144.8 773.693 948 800.993 948 800.993" stroke="#ECECEC" stroke-width="2" stroke-miterlimit="10"/>
<path d="M1436.3 469.393C1436.3 469.393 1216.1 504.093 1159.5 640.693C1105.6 770.993 882.3 800.993 882.3 800.993" stroke="#ECECEC" stroke-width="2" stroke-miterlimit="10"/>
<path d="M1436.3 433.393C1436.3 433.393 1190 471.393 1126.7 623.493C1066.4 768.293 816.6 800.993 816.6 800.993" stroke="#ECECEC" stroke-width="2" stroke-miterlimit="10"/>
<path d="M1436.3 397.393C1436.3 397.393 1163.8 438.793 1093.8 606.193C1027.2 765.693 751 800.993 751 800.993" stroke="#ECECEC" stroke-width="2" stroke-miterlimit="10"/>
<path d="M1436.3 361.293C1436.3 361.293 1137.6 405.993 1061 588.893C988 762.993 685.3 800.993 685.3 800.993" stroke="#ECECEC" stroke-width="2" stroke-miterlimit="10"/>
<path d="M1436.3 325.293C1436.3 325.293 1111.5 373.293 1028.1 571.593C948.8 760.393 619.6 800.993 619.6 800.993" stroke="#ECECEC" stroke-width="2" stroke-miterlimit="10"/>
<path d="M1436.3 289.293C1436.3 289.293 1085.3 340.593 995.3 554.293C909.6 757.693 553.9 800.993 553.9 800.993" stroke="#ECECEC" stroke-width="2" stroke-miterlimit="10"/>
<path d="M1436.3 253.193C1436.3 253.193 1059.1 307.893 962.4 536.993C870.4 754.993 488.3 800.993 488.3 800.993" stroke="#ECECEC" stroke-width="2" stroke-miterlimit="10"/>
<path d="M1436.3 217.193C1436.3 217.193 1033 275.193 929.6 519.693C831.2 752.393 422.6 800.993 422.6 800.993" stroke="#ECECEC" stroke-width="2" stroke-miterlimit="10"/>
<path d="M1436.3 181.193C1436.3 181.193 1006.8 242.493 896.7 502.493C792 749.693 356.9 800.993 356.9 800.993" stroke="#ECECEC" stroke-width="2" stroke-miterlimit="10"/>
<path d="M1436.3 145.093C1436.3 145.093 980.6 209.793 863.8 485.093C752.8 746.993 291.2 800.993 291.2 800.993" stroke="#ECECEC" stroke-width="2" stroke-miterlimit="10"/>
<path d="M1436.3 109.093C1436.3 109.093 954.5 177.093 831 467.893C713.6 744.393 225.5 800.993 225.5 800.993" stroke="#ECECEC" stroke-width="2" stroke-miterlimit="10"/>
<path d="M1436.3 73.0928C1436.3 73.0928 928.3 144.393 798.1 450.593C674.4 741.693 159.9 800.993 159.9 800.993" stroke="#ECECEC" stroke-width="2" stroke-miterlimit="10"/>
<path d="M1436.3 36.9928C1436.3 36.9928 902.1 111.593 765.3 433.293C635.1 738.993 94.2 800.993 94.2 800.993" stroke="#ECECEC" stroke-width="2" stroke-miterlimit="10"/>
<path d="M1436.3 0.992798C1436.3 0.992798 876 78.9928 732.4 415.993C595.9 736.393 28.5 800.993 28.5 800.993" stroke="#ECECEC" stroke-width="2" stroke-miterlimit="10"/>
</svg>
